<svg width="137" height="191" viewBox="0 0 137 191" fill="none" xmlns="http://www.w3.org/2000/svg">
<g clip-path="url(#clip0_864_14392)">
<path d="M47.2925 141.027H3.07227V144.613H47.2925V141.027Z" fill="#004FF9"/>
<path d="M71.1953 147.004H26.9751V150.589H71.1953V147.004Z" fill="#E1BA12"/>
<path d="M92.7078 152.98H48.4875V156.566H92.7078V152.98Z" fill="#D81425"/>
<g filter="url(#filter0_d_864_14392)">
<path d="M80.5682 20.4551L120.2 79.5186L106.904 92.5586L88.1239 111.807L84.7293 107.809L84.952 121.918L91.6414 134.491H89.2674L83.2303 123.041L62.2713 113.938L32.9686 121.758L59.7137 122.481L84.8338 134.491H3.09554C2.49894 102.36 13.2341 37.0493 80.5682 0V20.4551ZM78.9686 109.203L38.659 105.351L30.2391 120.714L62.284 111.866L83.242 121.032L83.1639 106.82L77.6668 103.091L78.9686 109.203ZM39.4793 103.97L76.5106 107.158L75.1873 101.649L44.2391 95.6123L39.4793 103.97ZM80.9168 70.9473C78.5307 64.6098 68.7316 57.4456 56.5262 62.04C51.3957 63.9716 48.4336 68.0156 46.8963 71.6953C44.7847 76.75 45.5867 82.2744 46.3407 85.1699L49.8612 83.8447L53.1786 95.8613L70.4442 99.0107L68.367 93.4932L81.703 99.7295L83.1024 81.3809L71.4881 77.5801L82.7313 77.9033L82.8133 72.7793L78.1463 73.1963L80.9168 70.9473ZM81.328 82.7188L80.6991 96.3545L78.9666 95.667L79.8016 82.2217L81.328 82.7188ZM74.9549 81.0967L75.5887 94.5273L73.4012 93.3418L72.9002 80.2627L74.9549 81.0967ZM70.8153 79.708L72.0789 93.0342L69.9803 92.083L68.3924 78.6113L70.8153 79.708ZM72.3651 43.8076C70.8925 43.8197 69.0526 44.0322 69.0526 44.0322L61.5037 52.0996L63.8143 45.0664C58.9994 45.8398 54.3887 47.2447 49.2303 49.752L46.4071 56.8447L45.5926 51.1221C43.6476 52.8369 39.5295 57.1559 38.618 60.7148L39.6834 67.8174L37.1815 62.5957L37.162 62.6934C36.7367 64.7826 36.0443 68.1854 36.577 71.667C37.1181 75.2035 37.9896 77.0949 39.7137 80L43.5545 80.0234C42.3244 71.3143 49.8258 53.3292 72.2723 59.1221L76.6707 43.9785C76.6707 43.9785 73.8713 43.7953 72.3651 43.8076Z" fill="url(#paint0_linear_864_14392)"/>
</g>
<path d="M76.6706 43.98L72.2727 59.1231C49.8261 53.3301 42.3248 71.3155 43.555 80.0246L39.7139 80.0015C37.9899 77.0964 37.118 75.2052 36.577 71.6686C36.0443 68.1867 36.737 64.7837 37.1623 62.6945L37.182 62.5971L39.6838 67.8192L38.618 60.7166C39.5294 57.1576 43.6473 52.8381 45.5924 51.1233L46.407 56.8465L49.2308 49.7537C54.3892 47.2464 58.9995 45.8412 63.8144 45.0677L61.5042 52.1012L69.053 44.0337C69.053 44.0337 70.8921 43.8212 72.3647 43.8092C73.8709 43.7968 76.6706 43.98 76.6706 43.98Z" fill="#001836"/>
<path d="M77.6667 103.094L83.164 106.823L83.2424 121.035L62.2842 111.869L30.2395 120.717L38.6597 105.353L78.9693 109.206L77.6667 103.094Z" fill="#001836"/>
<path d="M62.2716 113.941L83.2301 123.045L89.2702 134.501H84.8455L59.7142 122.486L32.9685 121.762L62.2716 113.941Z" fill="#001836"/>
<path d="M76.5104 107.159L75.1874 101.65L44.2394 95.6133L39.4797 103.97L76.5104 107.159Z" fill="#001836"/>
<path d="M80.9168 70.9486C78.531 64.611 68.7323 57.4465 56.5266 62.0411C51.3959 63.9726 48.4334 68.0164 46.8961 71.6962C44.7845 76.751 45.5865 82.2751 46.3405 85.1707L49.8612 83.8451L53.1787 95.8624L70.4442 99.0111L68.367 93.4937L81.7028 99.7302L83.1022 81.3818L71.4881 77.5805L82.7315 77.904L82.8131 72.7803L78.1464 73.1976L80.9168 70.9486ZM81.3275 82.7198L80.6987 96.355L78.9665 95.6678L79.8012 82.2224L81.3275 82.7198ZM74.9553 81.0975L75.5885 94.5283L73.4012 93.3423L72.8998 80.2639L74.9553 81.0975ZM70.8152 79.7093L72.0788 93.0345L69.98 92.0834L68.392 78.6117L70.8152 79.7093Z" fill="#001836"/>
<path d="M129.249 178.564C128.207 178.564 127.24 178.395 126.348 178.055C125.469 177.716 124.703 177.239 124.05 176.624C123.409 176.008 122.907 175.286 122.543 174.458C122.191 173.629 122.015 172.724 122.015 171.745C122.015 170.765 122.191 169.861 122.543 169.032C122.907 168.203 123.416 167.481 124.069 166.866C124.722 166.251 125.488 165.773 126.367 165.434C127.246 165.095 128.2 164.926 129.23 164.926C130.272 164.926 131.227 165.095 132.093 165.434C132.972 165.773 133.732 166.251 134.373 166.866C135.026 167.481 135.534 168.203 135.899 169.032C136.263 169.849 136.445 170.753 136.445 171.745C136.445 172.724 136.263 173.635 135.899 174.476C135.534 175.305 135.026 176.027 134.373 176.643C133.732 177.245 132.972 177.716 132.093 178.055C131.227 178.395 130.279 178.564 129.249 178.564ZM129.23 175.964C129.82 175.964 130.36 175.864 130.85 175.663C131.352 175.462 131.792 175.173 132.169 174.797C132.545 174.42 132.834 173.974 133.035 173.459C133.249 172.944 133.355 172.373 133.355 171.745C133.355 171.117 133.249 170.546 133.035 170.031C132.834 169.516 132.545 169.07 132.169 168.693C131.805 168.317 131.371 168.028 130.869 167.827C130.367 167.626 129.82 167.525 129.23 167.525C128.64 167.525 128.094 167.626 127.591 167.827C127.101 168.028 126.668 168.317 126.291 168.693C125.915 169.07 125.62 169.516 125.406 170.031C125.205 170.546 125.105 171.117 125.105 171.745C125.105 172.36 125.205 172.932 125.406 173.459C125.62 173.974 125.908 174.42 126.273 174.797C126.649 175.173 127.089 175.462 127.591 175.663C128.094 175.864 128.64 175.964 129.23 175.964Z" fill="white"/>
<path d="M106.167 178.335V165.148H111.874C113.055 165.148 114.072 165.343 114.926 165.732C115.78 166.109 116.439 166.655 116.904 167.371C117.368 168.087 117.601 168.941 117.601 169.933C117.601 170.913 117.368 171.76 116.904 172.476C116.439 173.179 115.78 173.719 114.926 174.096C114.072 174.473 113.055 174.661 111.874 174.661H107.862L109.218 173.324V178.335H106.167ZM114.549 178.335L111.253 173.55H114.511L117.846 178.335H114.549ZM109.218 173.663L107.862 172.231H111.705C112.647 172.231 113.35 172.03 113.814 171.629C114.279 171.214 114.511 170.649 114.511 169.933C114.511 169.205 114.279 168.64 113.814 168.238C113.35 167.836 112.647 167.635 111.705 167.635H107.862L109.218 166.184V173.663Z" fill="white"/>
<path d="M95.4905 174.21V171.855H100.821V174.21H95.4905Z" fill="white"/>
<path d="M85.0167 178.335V167.635H80.7971V165.148H92.2879V167.635H88.0684V178.335H85.0167Z" fill="white"/>
<path d="M73.288 165.148H76.3397V178.335H73.288V165.148ZM67.2978 178.335H64.2461V165.148H67.2978V178.335ZM73.5141 172.928H67.0717V170.348H73.5141V172.928Z" fill="white"/>
<path d="M53.2545 178.564C52.2121 178.564 51.2514 178.401 50.3724 178.074C49.5058 177.735 48.7461 177.258 48.093 176.643C47.4526 176.027 46.9502 175.305 46.586 174.476C46.2344 173.647 46.0586 172.737 46.0586 171.745C46.0586 170.753 46.2344 169.842 46.586 169.013C46.9502 168.185 47.4588 167.463 48.1119 166.847C48.7649 166.232 49.531 165.761 50.41 165.434C51.2891 165.095 52.2561 164.926 53.311 164.926C54.4789 164.926 55.5275 165.12 56.4568 165.51C57.3987 165.899 58.1899 166.464 58.8303 167.205L56.8713 169.013C56.394 168.511 55.8729 168.141 55.3078 167.902C54.7426 167.651 54.1273 167.525 53.4617 167.525C52.8212 167.525 52.2373 167.626 51.7098 167.827C51.1824 168.028 50.724 168.317 50.3347 168.693C49.9579 169.07 49.6628 169.516 49.4493 170.031C49.2484 170.546 49.1479 171.117 49.1479 171.745C49.1479 172.36 49.2484 172.925 49.4493 173.44C49.6628 173.955 49.9579 174.407 50.3347 174.797C50.724 175.173 51.1761 175.462 51.691 175.663C52.2184 175.864 52.7961 175.964 53.424 175.964C54.0268 175.964 54.6108 175.87 55.1759 175.682C55.7536 175.481 56.3124 175.148 56.8524 174.684L58.5855 176.888C57.8696 177.428 57.0345 177.842 56.0801 178.131C55.1382 178.42 54.1963 178.564 53.2545 178.564ZM55.7975 176.492V171.538H58.5855V176.888L55.7975 176.492Z" fill="white"/>
<path d="M37.8809 178.335V165.148H40.9325V178.335H37.8809Z" fill="white"/>
<path d="M19.842 178.335V165.148H22.3663L30.1461 174.642H28.9217V165.148H31.9357V178.335H29.4303L21.6316 168.841H22.856V178.335H19.842Z" fill="white"/>
<path d="M5.80369 175.321L5.63415 171.798L11.9447 165.148H15.3354L9.64652 171.271L7.95115 173.079L5.80369 175.321ZM3.07227 178.335V165.148H6.10509V178.335H3.07227ZM12.0954 178.335L7.40487 172.589L9.40163 170.423L15.6556 178.335H12.0954Z" fill="white"/>
<path d="M136 189.219C136 189.558 135.918 189.852 135.754 190.102C135.59 190.352 135.35 190.545 135.035 190.68C134.722 190.816 134.342 190.883 133.894 190.883C133.696 190.883 133.502 190.87 133.312 190.844C133.125 190.818 132.944 190.781 132.769 190.731C132.597 190.679 132.433 190.615 132.277 190.54V189.415C132.548 189.534 132.829 189.642 133.121 189.739C133.412 189.835 133.701 189.883 133.988 189.883C134.186 189.883 134.345 189.857 134.465 189.805C134.587 189.753 134.676 189.681 134.73 189.59C134.785 189.499 134.812 189.395 134.812 189.278C134.812 189.135 134.764 189.012 134.668 188.911C134.571 188.809 134.439 188.714 134.269 188.625C134.103 188.537 133.914 188.442 133.703 188.34C133.57 188.278 133.425 188.202 133.269 188.114C133.113 188.022 132.964 187.912 132.824 187.782C132.683 187.651 132.567 187.494 132.476 187.309C132.388 187.121 132.343 186.897 132.343 186.637C132.343 186.296 132.421 186.004 132.578 185.762C132.734 185.52 132.957 185.335 133.246 185.207C133.537 185.077 133.881 185.012 134.277 185.012C134.574 185.012 134.857 185.047 135.125 185.117C135.396 185.185 135.678 185.284 135.973 185.414L135.582 186.356C135.319 186.249 135.083 186.167 134.875 186.109C134.666 186.05 134.454 186.02 134.238 186.02C134.087 186.02 133.958 186.044 133.851 186.094C133.744 186.141 133.664 186.208 133.609 186.297C133.554 186.383 133.527 186.483 133.527 186.598C133.527 186.733 133.566 186.848 133.644 186.942C133.725 187.033 133.845 187.121 134.004 187.207C134.165 187.293 134.366 187.393 134.605 187.508C134.897 187.646 135.146 187.791 135.351 187.942C135.56 188.09 135.72 188.266 135.832 188.469C135.944 188.67 136 188.92 136 189.219Z" fill="white"/>
<path d="M131.045 187.895C131.045 188.538 130.921 189.076 130.674 189.508C130.429 189.938 130.073 190.262 129.607 190.481C129.141 190.697 128.58 190.805 127.924 190.805H126.306V185.094H128.099C128.698 185.094 129.218 185.201 129.658 185.414C130.098 185.625 130.439 185.939 130.682 186.356C130.924 186.77 131.045 187.283 131.045 187.895ZM129.787 187.926C129.787 187.504 129.724 187.158 129.599 186.887C129.477 186.613 129.295 186.412 129.053 186.281C128.813 186.151 128.516 186.086 128.162 186.086H127.517V189.805H128.037C128.628 189.805 129.067 189.648 129.353 189.332C129.642 189.017 129.787 188.549 129.787 187.926Z" fill="white"/>
<path d="M124.464 190.805H122.925L120.441 186.485H120.405C120.416 186.664 120.425 186.845 120.433 187.028C120.441 187.21 120.448 187.392 120.456 187.574C120.464 187.754 120.472 187.935 120.48 188.117V190.805H119.397V185.094H120.925L123.406 189.372H123.433C123.428 189.194 123.421 189.019 123.413 188.844C123.406 188.67 123.398 188.495 123.39 188.321C123.385 188.146 123.38 187.972 123.374 187.797V185.094H124.464V190.805Z" fill="white"/>
<path d="M116.349 190.805V185.094H117.56V190.805H116.349Z" fill="white"/>
<path d="M110.82 190.805L109.444 186.324H109.409C109.414 186.431 109.422 186.593 109.433 186.809C109.446 187.022 109.457 187.25 109.468 187.492C109.478 187.735 109.484 187.953 109.484 188.149V190.805H108.401V185.094H110.05L111.402 189.461H111.425L112.859 185.094H114.507V190.805H113.378V188.102C113.378 187.922 113.381 187.715 113.386 187.481C113.394 187.246 113.403 187.024 113.414 186.813C113.424 186.599 113.432 186.439 113.437 186.332H113.402L111.929 190.805H110.82Z" fill="white"/>
<path d="M104.327 190.805H101.038V185.094H104.327V186.086H102.249V187.34H104.183V188.332H102.249V189.805H104.327V190.805Z" fill="white"/>
<path d="M99.9151 185.094L97.9735 190.805H96.653L94.7153 185.094H95.9381L97.0124 188.493C97.0307 188.55 97.0606 188.658 97.1023 188.817C97.144 188.973 97.1856 189.14 97.2273 189.317C97.2716 189.491 97.3015 189.636 97.3172 189.75C97.3328 189.636 97.3601 189.491 97.3992 189.317C97.4409 189.142 97.4812 188.977 97.5203 188.821C97.562 188.662 97.5919 188.552 97.6102 188.493L98.6923 185.094H99.9151Z" fill="white"/>
<path d="M92.3855 190.805V185.094H93.5966V190.805H92.3855Z" fill="white"/>
<path d="M89.5552 190.805H88.3442V186.102H86.7932V185.094H91.1062V186.102H89.5552V190.805Z" fill="white"/>
<path d="M84.9245 190.805L84.5104 189.446H82.4282L82.0141 190.805H80.7092L82.7251 185.07H84.2057L86.2293 190.805H84.9245ZM84.2213 188.43L83.8072 187.102C83.7812 187.013 83.746 186.9 83.7017 186.762C83.6601 186.621 83.6171 186.479 83.5728 186.336C83.5311 186.19 83.4973 186.064 83.4712 185.957C83.4452 186.064 83.4087 186.197 83.3618 186.356C83.3176 186.512 83.2746 186.66 83.2329 186.801C83.1912 186.942 83.1613 187.042 83.1431 187.102L82.7329 188.43H84.2213Z" fill="white"/>
<path d="M79.8328 190.805H76.5435V185.094H79.8328V186.086H77.7545V187.34H79.6883V188.332H77.7545V189.805H79.8328V190.805Z" fill="white"/>
<path d="M72.5258 185.094C73.0441 185.094 73.4712 185.156 73.8072 185.281C74.1458 185.406 74.3971 185.595 74.5612 185.848C74.7252 186.1 74.8073 186.419 74.8073 186.805C74.8073 187.065 74.7578 187.293 74.6588 187.489C74.5599 187.684 74.4296 187.849 74.2682 187.985C74.1067 188.12 73.9322 188.231 73.7447 188.317L75.4245 190.805H74.0806L72.7172 188.614H72.0726V190.805H70.8616V185.094H72.5258ZM72.4399 186.086H72.0726V187.629H72.4633C72.8644 187.629 73.1509 187.563 73.3228 187.43C73.4973 187.294 73.5845 187.097 73.5845 186.836C73.5845 186.565 73.4907 186.373 73.3032 186.258C73.1183 186.143 72.8305 186.086 72.4399 186.086Z" fill="white"/>
<path d="M67.7854 186.02C67.5536 186.02 67.3479 186.065 67.1682 186.156C66.9911 186.245 66.8413 186.374 66.7189 186.543C66.5991 186.712 66.508 186.917 66.4454 187.156C66.3829 187.396 66.3517 187.666 66.3517 187.965C66.3517 188.369 66.4012 188.714 66.5001 189C66.6017 189.284 66.758 189.502 66.9689 189.653C67.1799 189.801 67.4521 189.875 67.7854 189.875C68.0172 189.875 68.249 189.849 68.4808 189.797C68.7152 189.745 68.9691 189.671 69.2426 189.575V190.59C68.99 190.695 68.7412 190.769 68.4964 190.813C68.2516 190.86 67.9769 190.883 67.6721 190.883C67.0835 190.883 66.5991 190.762 66.2189 190.52C65.8412 190.275 65.5612 189.934 65.3789 189.497C65.1966 189.056 65.1055 188.543 65.1055 187.957C65.1055 187.525 65.1641 187.129 65.2813 186.77C65.3985 186.41 65.5704 186.099 65.7969 185.836C66.0235 185.573 66.3035 185.37 66.6369 185.227C66.9702 185.083 67.3531 185.012 67.7854 185.012C68.0693 185.012 68.3532 185.048 68.6371 185.121C68.9236 185.191 69.197 185.289 69.4575 185.414L69.0668 186.399C68.8532 186.297 68.6384 186.208 68.4222 186.133C68.206 186.057 67.9938 186.02 67.7854 186.02Z" fill="white"/>
<path d="M58.8518 187.598H61.1177V190.559C60.8181 190.658 60.5069 190.738 60.184 190.797C59.861 190.855 59.4951 190.883 59.0862 190.883C58.5184 190.883 58.0366 190.771 57.6407 190.547C57.2449 190.323 56.9441 189.993 56.7383 189.555C56.5326 189.118 56.4297 188.58 56.4297 187.942C56.4297 187.343 56.5443 186.824 56.7735 186.387C57.0053 185.949 57.3425 185.611 57.7853 185.371C58.2306 185.132 58.7737 185.012 59.4144 185.012C59.7165 185.012 60.0147 185.044 60.309 185.109C60.6033 185.174 60.8702 185.259 61.1098 185.363L60.7075 186.332C60.533 186.244 60.3337 186.169 60.1097 186.109C59.8858 186.05 59.6514 186.02 59.4066 186.02C59.055 186.02 58.7489 186.1 58.4885 186.262C58.2306 186.423 58.0301 186.65 57.8869 186.942C57.7462 187.231 57.6759 187.572 57.6759 187.965C57.6759 188.338 57.7267 188.668 57.8283 188.957C57.9298 189.244 58.09 189.469 58.3088 189.633C58.5276 189.795 58.8127 189.875 59.1643 189.875C59.3362 189.875 59.4808 189.868 59.598 189.852C59.7178 189.834 59.8298 189.816 59.9339 189.797V188.606H58.8518V187.598Z" fill="white"/>
<path d="M54.8416 190.805H53.3024L50.8177 186.485H50.7826C50.793 186.664 50.8021 186.845 50.8099 187.028C50.8177 187.21 50.8255 187.392 50.8334 187.574C50.8412 187.754 50.849 187.935 50.8568 188.117V190.805H49.7747V185.094H51.3022L53.7829 189.372H53.8102C53.805 189.194 53.7985 189.019 53.7907 188.844C53.7829 188.67 53.7751 188.495 53.7672 188.321C53.762 188.146 53.7568 187.972 53.7516 187.797V185.094H54.8416V190.805Z" fill="white"/>
<path d="M46.7263 190.805V185.094H47.9374V190.805H46.7263Z" fill="white"/>
<path d="M42.7087 185.094C43.2269 185.094 43.6541 185.156 43.99 185.281C44.3286 185.406 44.5799 185.595 44.744 185.848C44.9081 186.1 44.9901 186.419 44.9901 186.805C44.9901 187.065 44.9407 187.293 44.8417 187.489C44.7427 187.684 44.6125 187.849 44.451 187.985C44.2896 188.12 44.1151 188.231 43.9275 188.317L45.6074 190.805H44.2635L42.9001 188.614H42.2555V190.805H41.0444V185.094H42.7087ZM42.6227 186.086H42.2555V187.629H42.6462C43.0472 187.629 43.3337 187.563 43.5056 187.43C43.6801 187.294 43.7674 187.097 43.7674 186.836C43.7674 186.565 43.6736 186.373 43.4861 186.258C43.3012 186.143 43.0134 186.086 42.6227 186.086Z" fill="white"/>
<path d="M39.4488 190.805H36.1594V185.094H39.4488V186.086H37.3705V187.34H39.3043V188.332H37.3705V189.805H39.4488V190.805Z" fill="white"/>
<path d="M35.0411 185.094L33.5878 190.805H32.2087L31.4352 187.805C31.4196 187.748 31.3988 187.66 31.3727 187.543C31.3467 187.426 31.3193 187.298 31.2907 187.16C31.262 187.02 31.236 186.888 31.2126 186.766C31.1917 186.641 31.1774 186.542 31.1696 186.469C31.1618 186.542 31.1461 186.639 31.1227 186.762C31.1019 186.884 31.0771 187.015 31.0485 187.153C31.0224 187.291 30.9964 187.42 30.9703 187.539C30.9443 187.659 30.9235 187.75 30.9078 187.813L30.1382 190.805H28.7631L27.3059 185.094H28.4974L29.228 188.211C29.2488 188.305 29.2723 188.417 29.2983 188.547C29.3269 188.677 29.3543 188.814 29.3803 188.957C29.409 189.098 29.4337 189.235 29.4546 189.368C29.478 189.498 29.4949 189.611 29.5053 189.707C29.5184 189.609 29.5353 189.494 29.5561 189.364C29.577 189.231 29.5991 189.097 29.6225 188.961C29.6486 188.823 29.6746 188.696 29.7007 188.578C29.7267 188.461 29.7502 188.366 29.771 188.293L30.6031 185.094H31.7478L32.5799 188.293C32.5981 188.364 32.6189 188.459 32.6424 188.578C32.6684 188.696 32.6945 188.823 32.7205 188.961C32.7466 189.099 32.77 189.235 32.7908 189.368C32.8143 189.498 32.8312 189.611 32.8416 189.707C32.8599 189.577 32.8846 189.42 32.9159 189.235C32.9497 189.047 32.9849 188.861 33.0213 188.676C33.0604 188.491 33.0943 188.336 33.1229 188.211L33.8495 185.094H35.0411Z" fill="white"/>
<path d="M26.4407 187.938C26.4407 188.378 26.386 188.779 26.2767 189.141C26.1673 189.5 26.0006 189.81 25.7766 190.071C25.5552 190.331 25.274 190.532 24.9328 190.672C24.5916 190.81 24.1879 190.88 23.7217 190.88C23.2555 190.88 22.8518 190.81 22.5107 190.672C22.1695 190.532 21.8869 190.331 21.6629 190.071C21.4415 189.81 21.2762 189.499 21.1668 189.137C21.0574 188.775 21.0027 188.373 21.0027 187.93C21.0027 187.339 21.0991 186.824 21.2918 186.387C21.4871 185.947 21.7866 185.606 22.1903 185.363C22.594 185.121 23.1071 185 23.7295 185C24.3494 185 24.8585 185.121 25.257 185.363C25.6581 185.606 25.955 185.947 26.1477 186.387C26.3431 186.827 26.4407 187.344 26.4407 187.938ZM22.2723 187.938C22.2723 188.336 22.3218 188.68 22.4208 188.969C22.5224 189.256 22.6799 189.477 22.8935 189.633C23.1071 189.787 23.3831 189.864 23.7217 189.864C24.0655 189.864 24.3442 189.787 24.5577 189.633C24.7713 189.477 24.9263 189.256 25.0226 188.969C25.1216 188.68 25.1711 188.336 25.1711 187.938C25.1711 187.339 25.0591 186.867 24.8351 186.524C24.6111 186.18 24.2426 186.008 23.7295 186.008C23.3883 186.008 23.1097 186.086 22.8935 186.242C22.6799 186.396 22.5224 186.617 22.4208 186.906C22.3218 187.193 22.2723 187.537 22.2723 187.938Z" fill="white"/>
<path d="M17.6567 185.094C18.3937 185.094 18.9315 185.253 19.2701 185.57C19.6087 185.885 19.778 186.32 19.778 186.875C19.778 187.125 19.7402 187.365 19.6647 187.594C19.5892 187.821 19.4655 188.022 19.2936 188.2C19.1243 188.377 18.8977 188.517 18.6138 188.621C18.3299 188.723 17.9796 188.774 17.5629 188.774H17.0433V190.805H15.8323V185.094H17.6567ZM17.5942 186.086H17.0433V187.782H17.4418C17.6684 187.782 17.865 187.752 18.0317 187.692C18.1984 187.632 18.3273 187.538 18.4185 187.41C18.5096 187.283 18.5552 187.119 18.5552 186.918C18.5552 186.637 18.4771 186.429 18.3208 186.293C18.1645 186.155 17.9223 186.086 17.5942 186.086Z" fill="white"/>
<path d="M10.303 190.805L8.92784 186.324H8.89268C8.89789 186.431 8.9057 186.593 8.91612 186.809C8.92914 187.022 8.94086 187.25 8.95128 187.492C8.9617 187.735 8.96691 187.953 8.96691 188.149V190.805H7.88477V185.094H9.53337L10.8851 189.461H10.9085L12.3422 185.094H13.9909V190.805H12.8618V188.102C12.8618 187.922 12.8644 187.715 12.8696 187.481C12.8775 187.246 12.8866 187.024 12.897 186.813C12.9074 186.599 12.9152 186.439 12.9204 186.332H12.8853L11.4125 190.805H10.303Z" fill="white"/>
<path d="M6.2894 190.805H3V185.094H6.2894V186.086H4.21106V187.34H6.14485V188.332H4.21106V189.805H6.2894V190.805Z" fill="white"/>
</g>
<defs>
<filter id="filter0_d_864_14392" x="0.682474" y="0" width="121.908" height="139.273" filterUnits="userSpaceOnUse" color-interpolation-filters="sRGB">
<feFlood flood-opacity="0" result="BackgroundImageFix"/>
<feColorMatrix in="SourceAlpha" type="matrix" values="0 0 0 0 0 0 0 0 0 0 0 0 0 0 0 0 0 0 127 0" result="hardAlpha"/>
<feOffset dy="2.39028"/>
<feGaussianBlur stdDeviation="1.19514"/>
<feComposite in2="hardAlpha" operator="out"/>
<feColorMatrix type="matrix" values="0 0 0 0 0 0 0 0 0 0 0 0 0 0 0 0 0 0 0.25 0"/>
<feBlend mode="normal" in2="BackgroundImageFix" result="effect1_dropShadow_864_14392"/>
<feBlend mode="normal" in="SourceGraphic" in2="effect1_dropShadow_864_14392" result="shape"/>
</filter>
<linearGradient id="paint0_linear_864_14392" x1="3.07277" y1="134.179" x2="138.219" y2="61.9631" gradientUnits="userSpaceOnUse">
<stop stop-color="#A47A1E"/>
<stop offset="0.127" stop-color="#D3A84C"/>
<stop offset="0.31" stop-color="#FFEC94"/>
<stop offset="0.500111" stop-color="#E6BE69"/>
<stop offset="0.655149" stop-color="#FFE19B"/>
<stop offset="0.82" stop-color="#B58F3E"/>
<stop offset="1" stop-color="#956D13"/>
</linearGradient>
<clipPath id="clip0_864_14392">
<rect width="137" height="191" fill="white"/>
</clipPath>
</defs>
</svg>
